<?xml version="1.0" encoding="UTF-8" standalone="no"?>
<!DOCTYPE svg PUBLIC "-//W3C//DTD SVG 1.1//EN" "http://www.w3.org/Graphics/SVG/1.1/DTD/svg11.dtd">
<svg width="100%" height="100%" viewBox="0 0 336 192" version="1.1" xmlns="http://www.w3.org/2000/svg" style="fill-rule:evenodd;clip-rule:evenodd;stroke-linejoin:round;stroke-miterlimit:2;">
    <path d="M194.735,114.385L194.735,141.631L191.089,141.631L172.908,114.385L186.934,114.385L193.505,124.236L193.505,114.385L194.735,114.385ZM138.151,114.385L138.151,131.652C138.151,137.501 141.474,140.423 148.13,140.423L151.526,140.423L151.526,141.631L123.422,141.631L123.422,140.423L126.943,140.423C133.594,140.423 136.922,137.501 136.922,131.652L136.922,114.385L138.151,114.385ZM172.635,92.953L158.607,92.953L138.151,62.298L138.151,92.953L136.922,92.953L136.922,64.236C136.922,58.725 133.594,55.965 126.943,55.965L123.422,55.965L123.422,54.756L147.151,54.756L172.635,92.953ZM193.505,92.953L193.505,64.715C193.505,58.881 190.177,55.965 183.526,55.965L180.13,55.965L180.13,54.756L208.235,54.756L208.235,55.965L204.714,55.965C198.058,55.965 194.735,58.881 194.735,64.715L194.735,92.953L193.505,92.953Z" style="fill:rgb(168,129,91);fill-rule:nonzero;"/>
    <g transform="matrix(1,0,0,1,27.0926,109.08)">
        <g>
            <g>
                <path d="M0.625,0L0.625,-0.167L1.083,-0.167C1.969,-0.167 2.417,-0.552 2.417,-1.333L2.417,-10.312C2.417,-11.047 1.969,-11.417 1.083,-11.417L0.625,-11.417L0.625,-11.583L3.792,-11.583L9.958,-2.312L9.958,-10.25C9.958,-11.026 9.51,-11.417 8.625,-11.417L8.188,-11.417L8.188,-11.583L11.938,-11.583L11.938,-11.417L11.458,-11.417C10.568,-11.417 10.125,-11.026 10.125,-10.25L10.125,0L9.646,0L2.583,-10.583L2.583,-1.333C2.583,-0.552 3.026,-0.167 3.917,-0.167L4.375,-0.167L4.375,0L0.625,0Z" style="fill:rgb(168,129,91);fill-rule:nonzero;"/>
            </g>
        </g>
    </g>
    <g transform="matrix(1,0,0,1,47.2598,109.08)">
        <g>
            <g>
                <path d="M0,0L0,-0.167L0.479,-0.167C0.823,-0.167 1.094,-0.255 1.292,-0.437C1.484,-0.615 1.667,-0.948 1.833,-1.437L5.375,-11.583L6.208,-11.583L10.271,-1.021C10.396,-0.698 10.526,-0.479 10.667,-0.354C10.802,-0.229 10.99,-0.167 11.229,-0.167L11.438,-0.167L11.438,0L6.979,0L6.979,-0.167L7.354,-0.167C7.755,-0.167 8.047,-0.214 8.229,-0.312C8.422,-0.406 8.521,-0.583 8.521,-0.833C8.521,-0.917 8.505,-1.021 8.479,-1.146C8.464,-1.271 8.427,-1.401 8.375,-1.542L7.375,-4.208L2.979,-4.208L2.083,-1.646C1.984,-1.365 1.938,-1.135 1.938,-0.958C1.938,-0.667 2.068,-0.458 2.333,-0.333C2.594,-0.219 3.01,-0.167 3.583,-0.167L3.958,-0.167L3.958,0L0,0ZM3.042,-4.375L7.313,-4.375L6.125,-7.521C5.708,-8.615 5.375,-9.594 5.125,-10.458C5.01,-10.125 4.917,-9.833 4.833,-9.583C4.76,-9.333 4.677,-9.068 4.583,-8.792C4.484,-8.526 4.365,-8.198 4.229,-7.812L3.042,-4.375Z" style="fill:rgb(168,129,91);fill-rule:nonzero;"/>
            </g>
        </g>
    </g>
    <g transform="matrix(1,0,0,1,66.486,109.08)">
        <g>
            <g>
                <path d="M0.625,0L0.625,-0.167L0.833,-0.167C1.719,-0.167 2.167,-0.552 2.167,-1.333L2.167,-10.312C2.167,-11.047 1.719,-11.417 0.833,-11.417L0.625,-11.417L0.625,-11.583L5.333,-11.583L5.333,-11.417L5.125,-11.417C4.234,-11.417 3.792,-11.026 3.792,-10.25L3.792,-1.333C3.792,-0.552 4.234,-0.167 5.125,-0.167L5.333,-0.167L5.333,0L0.625,0Z" style="fill:rgb(168,129,91);fill-rule:nonzero;"/>
            </g>
        </g>
    </g>
    <g transform="matrix(1,0,0,1,80.2282,109.08)">
        <g>
            <g>
                <path d="M0.625,0L0.625,-0.167L0.833,-0.167C1.719,-0.167 2.167,-0.552 2.167,-1.333L2.167,-10.312C2.167,-11.047 1.719,-11.417 0.833,-11.417L0.625,-11.417L0.625,-11.583L5.333,-11.583L5.333,-11.417L5.125,-11.417C4.234,-11.417 3.792,-11.026 3.792,-10.25L3.792,-0.167L6.792,-0.167C7.375,-0.167 7.833,-0.25 8.167,-0.417C8.51,-0.583 8.76,-0.865 8.917,-1.271C9.083,-1.687 9.188,-2.25 9.229,-2.958L9.271,-3.479L9.438,-3.479L9.313,0L0.625,0Z" style="fill:rgb(168,129,91);fill-rule:nonzero;"/>
            </g>
        </g>
    </g>
    <g transform="matrix(1,0,0,1,98.124,109.08)">
        <g>
            <g>
                <path d="M4.188,0.167C3.115,0.167 2.276,-0.047 1.667,-0.479C1.068,-0.906 0.771,-1.443 0.771,-2.083C0.771,-2.833 1.156,-3.208 1.938,-3.208C1.948,-2.151 2.151,-1.354 2.542,-0.812C2.927,-0.271 3.51,0 4.292,0C4.984,0 5.547,-0.198 5.979,-0.604C6.406,-1.005 6.625,-1.604 6.625,-2.396C6.625,-2.88 6.531,-3.276 6.354,-3.583C6.172,-3.885 5.88,-4.156 5.479,-4.396C5.089,-4.646 4.573,-4.917 3.938,-5.208C3.604,-5.375 3.26,-5.547 2.917,-5.729C2.568,-5.922 2.24,-6.151 1.938,-6.417C1.646,-6.677 1.406,-7 1.229,-7.375C1.047,-7.76 0.958,-8.229 0.958,-8.771C0.958,-9.74 1.271,-10.479 1.896,-10.979C2.521,-11.49 3.344,-11.75 4.375,-11.75C5.01,-11.75 5.568,-11.656 6.042,-11.479C6.51,-11.312 6.88,-11.089 7.146,-10.812C7.406,-10.531 7.542,-10.219 7.542,-9.875C7.542,-9.568 7.422,-9.323 7.188,-9.146C6.948,-8.964 6.646,-8.875 6.271,-8.875C6.271,-9.776 6.125,-10.448 5.833,-10.896C5.542,-11.354 5.052,-11.583 4.375,-11.583C3.734,-11.583 3.229,-11.396 2.854,-11.021C2.49,-10.646 2.313,-10.089 2.313,-9.354C2.313,-8.823 2.406,-8.396 2.604,-8.062C2.797,-7.74 3.089,-7.464 3.479,-7.229C3.865,-6.99 4.359,-6.734 4.958,-6.458C5.5,-6.208 6,-5.943 6.458,-5.667C6.927,-5.401 7.302,-5.062 7.583,-4.646C7.859,-4.229 8,-3.693 8,-3.042C8,-2.052 7.667,-1.271 7,-0.687C6.333,-0.115 5.396,0.167 4.188,0.167Z" style="fill:rgb(168,129,91);fill-rule:nonzero;"/>
            </g>
        </g>
    </g>
    <g transform="matrix(1,0,0,1,149.072,109.08)">
        <g>
            <g>
                <path d="M0.625,0L0.625,-0.167L0.833,-0.167C1.719,-0.167 2.167,-0.552 2.167,-1.333L2.167,-10.312C2.167,-11.047 1.719,-11.417 0.833,-11.417L0.625,-11.417L0.625,-11.583L4.958,-11.583C7.75,-11.583 9.146,-10.667 9.146,-8.833C9.146,-7.193 8.104,-6.292 6.021,-6.125L6.021,-6.104C7.313,-6.047 8.234,-5.75 8.792,-5.208C9.344,-4.677 9.625,-3.984 9.625,-3.125C9.625,-1.042 8.234,0 5.458,0L0.625,0ZM3.792,-6.146L4.917,-6.146C5.818,-6.146 6.458,-6.339 6.833,-6.729C7.208,-7.115 7.396,-7.771 7.396,-8.687C7.396,-9.672 7.198,-10.375 6.813,-10.792C6.438,-11.208 5.792,-11.417 4.875,-11.417L3.792,-11.417L3.792,-6.146ZM3.792,-0.167L5.375,-0.167C6.276,-0.167 6.922,-0.385 7.313,-0.833C7.698,-1.292 7.896,-2.052 7.896,-3.125C7.896,-4.151 7.698,-4.88 7.313,-5.312C6.938,-5.755 6.297,-5.979 5.396,-5.979L3.792,-5.979L3.792,-0.167Z" style="fill:rgb(168,129,91);fill-rule:nonzero;"/>
            </g>
        </g>
    </g>
    <g transform="matrix(1,0,0,1,167.471,109.08)">
        <g>
            <g>
                <path d="M2.583,0L2.583,-0.167L2.958,-0.167C3.844,-0.167 4.292,-0.552 4.292,-1.333L4.292,-5.083L1.396,-10.562C1.229,-10.896 1.063,-11.115 0.896,-11.229C0.729,-11.354 0.51,-11.417 0.25,-11.417L-0.083,-11.417L-0.083,-11.583L4.375,-11.583L4.375,-11.417L3.833,-11.417C3.333,-11.417 3.083,-11.271 3.083,-10.979C3.083,-10.781 3.193,-10.469 3.417,-10.042L4.813,-7.354C5.031,-6.922 5.234,-6.521 5.417,-6.146C5.594,-5.781 5.734,-5.479 5.833,-5.229C5.969,-5.479 6.13,-5.792 6.313,-6.167C6.505,-6.542 6.714,-6.937 6.938,-7.354L8.167,-9.729C8.427,-10.214 8.563,-10.589 8.563,-10.854C8.563,-11.062 8.469,-11.208 8.292,-11.292C8.125,-11.375 7.854,-11.417 7.479,-11.417L6.833,-11.417L6.833,-11.583L10.313,-11.583L10.313,-11.417L9.896,-11.417C9.63,-11.417 9.401,-11.323 9.208,-11.146C9.026,-10.964 8.813,-10.635 8.563,-10.167L5.917,-5.042L5.917,-1.333C5.917,-0.552 6.359,-0.167 7.25,-0.167L7.625,-0.167L7.625,0L2.583,0Z" style="fill:rgb(168,129,91);fill-rule:nonzero;"/>
            </g>
        </g>
    </g>
    <g transform="matrix(1,0,0,1,208.288,109.08)">
        <g>
            <g>
                <path d="M5.958,0.167C4.844,0.167 3.917,-0.083 3.167,-0.583C2.417,-1.083 1.854,-1.776 1.479,-2.667C1.104,-3.552 0.917,-4.589 0.917,-5.771C0.917,-6.937 1.104,-7.969 1.479,-8.875C1.865,-9.792 2.443,-10.5 3.208,-11C3.984,-11.5 4.964,-11.75 6.146,-11.75C7.198,-11.75 8.005,-11.562 8.563,-11.187C9.13,-10.823 9.417,-10.385 9.417,-9.875C9.417,-9.5 9.276,-9.219 9,-9.042C8.734,-8.875 8.401,-8.792 8,-8.792C8,-9.802 7.833,-10.521 7.5,-10.937C7.177,-11.354 6.656,-11.562 5.938,-11.562C4.797,-11.562 3.979,-11.073 3.479,-10.104C2.979,-9.146 2.729,-7.719 2.729,-5.833C2.729,-3.885 2.99,-2.427 3.521,-1.458C4.047,-0.484 4.922,0 6.146,0C6.865,0 7.458,-0.187 7.917,-0.562C8.375,-0.937 8.714,-1.542 8.938,-2.375C9.214,-2.26 9.354,-2.052 9.354,-1.75C9.354,-1.469 9.229,-1.187 8.979,-0.896C8.729,-0.604 8.344,-0.354 7.833,-0.146C7.333,0.063 6.708,0.167 5.958,0.167Z" style="fill:rgb(168,129,91);fill-rule:nonzero;"/>
            </g>
        </g>
    </g>
    <g transform="matrix(1,0,0,1,226.038,109.08)">
        <g>
            <g>
                <path d="M0,0L0,-0.167L0.479,-0.167C0.823,-0.167 1.094,-0.255 1.292,-0.437C1.484,-0.615 1.667,-0.948 1.833,-1.437L5.375,-11.583L6.208,-11.583L10.271,-1.021C10.396,-0.698 10.526,-0.479 10.667,-0.354C10.802,-0.229 10.99,-0.167 11.229,-0.167L11.438,-0.167L11.438,0L6.979,0L6.979,-0.167L7.354,-0.167C7.755,-0.167 8.047,-0.214 8.229,-0.312C8.422,-0.406 8.521,-0.583 8.521,-0.833C8.521,-0.917 8.505,-1.021 8.479,-1.146C8.464,-1.271 8.427,-1.401 8.375,-1.542L7.375,-4.208L2.979,-4.208L2.083,-1.646C1.984,-1.365 1.938,-1.135 1.938,-0.958C1.938,-0.667 2.068,-0.458 2.333,-0.333C2.594,-0.219 3.01,-0.167 3.583,-0.167L3.958,-0.167L3.958,0L0,0ZM3.042,-4.375L7.313,-4.375L6.125,-7.521C5.708,-8.615 5.375,-9.594 5.125,-10.458C5.01,-10.125 4.917,-9.833 4.833,-9.583C4.76,-9.333 4.677,-9.068 4.583,-8.792C4.484,-8.526 4.365,-8.198 4.229,-7.812L3.042,-4.375Z" style="fill:rgb(168,129,91);fill-rule:nonzero;"/>
            </g>
        </g>
    </g>
    <g transform="matrix(1,0,0,1,245.264,109.08)">
        <g>
            <g>
                <path d="M0.625,0L0.625,-0.167L0.833,-0.167C1.719,-0.167 2.167,-0.552 2.167,-1.333L2.167,-10.312C2.167,-11.047 1.719,-11.417 0.833,-11.417L0.625,-11.417L0.625,-11.583L4.979,-11.583C6.38,-11.583 7.422,-11.318 8.104,-10.792C8.797,-10.276 9.146,-9.531 9.146,-8.562C9.146,-7.922 9.021,-7.401 8.771,-7C8.521,-6.594 8.193,-6.276 7.792,-6.042C7.401,-5.818 6.99,-5.651 6.563,-5.542L8.854,-1.958C9.297,-1.26 9.651,-0.792 9.917,-0.542C10.177,-0.292 10.438,-0.167 10.688,-0.167L10.75,-0.167L10.75,0L10.521,0C10.005,0 9.583,-0.01 9.25,-0.042C8.927,-0.083 8.656,-0.151 8.438,-0.25C8.229,-0.344 8.031,-0.49 7.854,-0.687C7.688,-0.88 7.505,-1.13 7.313,-1.437L4.813,-5.396L3.792,-5.396L3.792,-1.333C3.792,-0.552 4.234,-0.167 5.125,-0.167L5.333,-0.167L5.333,0L0.625,0ZM3.792,-5.562L4.938,-5.562C5.823,-5.562 6.458,-5.776 6.833,-6.208C7.219,-6.651 7.417,-7.396 7.417,-8.437C7.417,-9.505 7.219,-10.271 6.833,-10.729C6.443,-11.187 5.797,-11.417 4.896,-11.417L3.792,-11.417L3.792,-5.562Z" style="fill:rgb(168,129,91);fill-rule:nonzero;"/>
            </g>
        </g>
    </g>
    <g transform="matrix(1,0,0,1,263.695,109.08)">
        <g>
            <g>
                <path d="M0.625,0L0.625,-0.167L0.833,-0.167C1.719,-0.167 2.167,-0.552 2.167,-1.333L2.167,-10.312C2.167,-11.047 1.719,-11.417 0.833,-11.417L0.625,-11.417L0.625,-11.583L5.333,-11.583L5.333,-11.417L5.125,-11.417C4.234,-11.417 3.792,-11.026 3.792,-10.25L3.792,-0.167L6.792,-0.167C7.375,-0.167 7.833,-0.25 8.167,-0.417C8.51,-0.583 8.76,-0.865 8.917,-1.271C9.083,-1.687 9.188,-2.25 9.229,-2.958L9.271,-3.479L9.438,-3.479L9.313,0L0.625,0Z" style="fill:rgb(168,129,91);fill-rule:nonzero;"/>
            </g>
        </g>
    </g>
    <g transform="matrix(1,0,0,1,281.591,109.08)">
        <g>
            <g>
                <path d="M0.625,0L0.625,-0.167L0.833,-0.167C1.719,-0.167 2.167,-0.552 2.167,-1.333L2.167,-10.312C2.167,-11.047 1.719,-11.417 0.833,-11.417L0.625,-11.417L0.625,-11.583L5.333,-11.583L5.333,-11.417L5.125,-11.417C4.234,-11.417 3.792,-11.026 3.792,-10.25L3.792,-1.333C3.792,-0.552 4.234,-0.167 5.125,-0.167L5.333,-0.167L5.333,0L0.625,0Z" style="fill:rgb(168,129,91);fill-rule:nonzero;"/>
            </g>
        </g>
    </g>
    <g transform="matrix(1,0,0,1,295.333,109.08)">
        <g>
            <g>
                <path d="M-0.188,3.896L-0.188,3.729L-0.042,3.729C0.427,3.729 0.823,3.635 1.146,3.458C1.479,3.276 1.729,2.964 1.896,2.521C2.073,2.089 2.167,1.5 2.167,0.75L2.167,-10.312C2.167,-11.047 1.719,-11.417 0.833,-11.417L0.625,-11.417L0.625,-11.583L5.333,-11.583L5.333,-11.417L5.125,-11.417C4.234,-11.417 3.792,-11.026 3.792,-10.25L3.792,0.125C3.792,1.094 3.625,1.854 3.292,2.396C2.969,2.948 2.531,3.339 1.979,3.563C1.422,3.781 0.797,3.896 0.104,3.896L-0.188,3.896Z" style="fill:rgb(168,129,91);fill-rule:nonzero;"/>
            </g>
        </g>
    </g>
    <g transform="matrix(1,0,0,1,308.913,109.08)">
        <g>
            <g>
                <path d="M0.625,0L0.625,-0.167L1.083,-0.167C1.969,-0.167 2.417,-0.552 2.417,-1.333L2.417,-10.312C2.417,-11.047 1.969,-11.417 1.083,-11.417L0.625,-11.417L0.625,-11.583L3.792,-11.583L9.958,-2.312L9.958,-10.25C9.958,-11.026 9.51,-11.417 8.625,-11.417L8.188,-11.417L8.188,-11.583L11.938,-11.583L11.938,-11.417L11.458,-11.417C10.568,-11.417 10.125,-11.026 10.125,-10.25L10.125,0L9.646,0L2.583,-10.583L2.583,-1.333C2.583,-0.552 3.026,-0.167 3.917,-0.167L4.375,-0.167L4.375,0L0.625,0Z" style="fill:rgb(168,129,91);fill-rule:nonzero;"/>
            </g>
        </g>
    </g>
</svg>
