<?xml version="1.0" encoding="UTF-8" standalone="no"?>
<!DOCTYPE svg PUBLIC "-//W3C//DTD SVG 1.1//EN" "http://www.w3.org/Graphics/SVG/1.1/DTD/svg11.dtd">
<svg width="100%" height="100%" viewBox="0 0 85 87" version="1.1" style="fill-rule:evenodd;clip-rule:evenodd;stroke-linejoin:round;stroke-miterlimit:2;">
    <g transform="matrix(1,0,0,1,-123.422,-54.756)">
        <path d="M194.735,114.385L194.735,141.631L191.089,141.631L172.908,114.385L186.934,114.385L193.505,124.236L193.505,114.385L194.735,114.385ZM138.151,114.385L138.151,131.652C138.151,137.501 141.474,140.423 148.13,140.423L151.526,140.423L151.526,141.631L123.422,141.631L123.422,140.423L126.943,140.423C133.594,140.423 136.922,137.501 136.922,131.652L136.922,114.385L138.151,114.385ZM172.635,92.953L158.607,92.953L138.151,62.298L138.151,92.953L136.922,92.953L136.922,64.236C136.922,58.725 133.594,55.965 126.943,55.965L123.422,55.965L123.422,54.756L147.151,54.756L172.635,92.953ZM193.505,92.953L193.505,64.715C193.505,58.881 190.177,55.965 183.526,55.965L180.13,55.965L180.13,54.756L208.235,54.756L208.235,55.965L204.714,55.965C198.058,55.965 194.735,58.881 194.735,64.715L194.735,92.953L193.505,92.953Z" style="fill:rgb(168,129,91);fill-rule:nonzero;"/>
    </g>
</svg>
